<svg aria-hidden="true" style="" version="1.1" xmlns="http://www.w3.org/2000/svg"
    xmlns:xlink="http://www.w3.org/1999/xlink">
    <defs>
        <symbol id="cross" viewBox="0 0 32 32">
            <path stroke-width="1" stroke-miterlimit="4" stroke-linecap="butt"
                stroke-linejoin="miter"
                d="M1.301 3.903c-0.718-0.718-0.718-1.883-0-2.602s1.883-0.718 2.602-0l26.797 26.796c0.718 0.718 0.718 1.883 0 2.602s-1.883 0.719-2.602 0l-26.797-26.796z"></path>
            <path stroke-width="1" stroke-miterlimit="4" stroke-linecap="butt"
                stroke-linejoin="miter"
                d="M1.302 30.699c-0.718-0.718-0.718-1.883-0-2.602l26.796-26.797c0.718-0.718 1.883-0.718 2.602-0s0.718 1.883 0 2.602l-26.796 26.797c-0.718 0.718-1.883 0.718-2.602 0z"></path>
        </symbol>
        <symbol id="magnifying-glass" viewBox="0 0 32 32">
            <path fill="transparent" style="fill: 'transparent'" stroke-width="3.2"
                stroke-miterlimit="4" stroke-linecap="round" stroke-linejoin="round"
                d="M14.4 27.2c7.069 0 12.8-5.731 12.8-12.8s-5.731-12.8-12.8-12.8c-7.069 0-12.8 5.731-12.8 12.8s5.731 12.8 12.8 12.8z"></path>
            <path stroke-width="3.2" stroke-miterlimit="4" stroke-linecap="round"
                stroke-linejoin="round" d="M30.4 30.4l-6.96-6.96"></path>
        </symbol>
        <symbol id="left" viewBox="0 0 32 32">
            <path fill="transparent" style="fill: 'transparent'" stroke-linejoin="round" stroke-linecap="round" stroke-miterlimit="4"
                stroke-width="2.6667" d="M21.333 4l-12 12 12 12"></path>
        </symbol>
        <symbol id="right" viewBox="0 0 32 32">
            <path fill="transparent" style="fill: 'transparent'" stroke-linejoin="round" stroke-linecap="round" stroke-miterlimit="4"
                stroke-width="2.6667" d="M10.667 28l12-12-12-12"></path>
        </symbol>
    </defs>
</svg>